G04 #@! TF.FileFunction,Soldermask,Bot*
%FSLAX46Y46*%
G04 Gerber Fmt 4.6, Leading zero omitted, Abs format (unit mm)*
G04 Created by KiCad (PCBNEW 4.0.7-e2-6376~58~ubuntu16.04.1) date Thu May 17 09:56:29 2018*
%MOMM*%
%LPD*%
G01*
G04 APERTURE LIST*
%ADD10C,0.100000*%
%ADD11C,2.600000*%
%ADD12R,2.200000X2.200000*%
%ADD13C,2.200000*%
%ADD14C,2.000000*%
%ADD15O,2.000000X2.000000*%
%ADD16C,1.924000*%
%ADD17C,2.740000*%
%ADD18C,2.900000*%
%ADD19O,1.300000X1.900000*%
%ADD20R,1.300000X1.900000*%
%ADD21R,2.100000X2.100000*%
%ADD22O,2.100000X2.100000*%
%ADD23C,2.100000*%
G04 APERTURE END LIST*
D10*
D11*
X175811000Y-70866000D03*
X190711000Y-70866000D03*
D12*
X178892200Y-115976400D03*
D13*
X178892200Y-118516400D03*
D12*
X189052200Y-115976400D03*
D13*
X189052200Y-118516400D03*
D14*
X178866800Y-101193600D03*
D15*
X178866800Y-111353600D03*
D14*
X189026800Y-101193600D03*
D15*
X189026800Y-111353600D03*
D16*
X160655000Y-91059000D03*
X158115000Y-91059000D03*
X155575000Y-91059000D03*
X153035000Y-91059000D03*
X150495000Y-91059000D03*
X147955000Y-91059000D03*
X145415000Y-91059000D03*
X142875000Y-91059000D03*
X140335000Y-91059000D03*
X137795000Y-91059000D03*
X135255000Y-91059000D03*
X132715000Y-91059000D03*
X130175000Y-91059000D03*
X127635000Y-91059000D03*
X125095000Y-91059000D03*
X125095000Y-118999000D03*
X127635000Y-118999000D03*
X130175000Y-118999000D03*
X132715000Y-118999000D03*
X135255000Y-118999000D03*
X137795000Y-118999000D03*
X140335000Y-118999000D03*
X142875000Y-118999000D03*
X145415000Y-118999000D03*
X147955000Y-118999000D03*
X150495000Y-118999000D03*
X153035000Y-118999000D03*
X155575000Y-118999000D03*
X158115000Y-118999000D03*
X160655000Y-118999000D03*
D17*
X187016400Y-85471000D03*
X184516400Y-95471000D03*
X182016400Y-85471000D03*
D18*
X114655600Y-61315600D03*
X114655600Y-154584400D03*
X195224400Y-154584400D03*
X195224400Y-61315600D03*
D14*
X174345600Y-82600800D03*
D15*
X174345600Y-92760800D03*
D19*
X193802000Y-91059000D03*
X195072000Y-91059000D03*
D20*
X192532000Y-91059000D03*
D21*
X186613800Y-152552400D03*
D22*
X186613800Y-150012400D03*
X186613800Y-147472400D03*
X186613800Y-144932400D03*
X186613800Y-142392400D03*
X186613800Y-139852400D03*
X186613800Y-137312400D03*
X186613800Y-134772400D03*
D23*
X164236400Y-75582000D03*
X164236400Y-65549000D03*
X166776400Y-65549000D03*
X119634000Y-75582000D03*
X122174000Y-75582000D03*
X166776400Y-75582000D03*
X122174000Y-65549000D03*
X119634000Y-65549000D03*
M02*
