G04 #@! TF.FileFunction,Copper,L2,Bot,Signal*
%FSLAX46Y46*%
G04 Gerber Fmt 4.6, Leading zero omitted, Abs format (unit mm)*
G04 Created by KiCad (PCBNEW 4.0.7-e2-6376~58~ubuntu16.04.1) date Fri Mar  9 08:47:09 2018*
%MOMM*%
%LPD*%
G01*
G04 APERTURE LIST*
%ADD10C,0.100000*%
%ADD11C,2.200000*%
%ADD12R,1.800000X1.800000*%
%ADD13C,1.800000*%
%ADD14C,1.600000*%
%ADD15O,1.600000X1.600000*%
%ADD16C,1.524000*%
%ADD17C,2.340000*%
%ADD18C,2.500000*%
%ADD19O,0.900000X1.500000*%
%ADD20R,0.900000X1.500000*%
%ADD21R,1.700000X1.700000*%
%ADD22O,1.700000X1.700000*%
%ADD23C,1.700000*%
%ADD24C,0.250000*%
G04 APERTURE END LIST*
D10*
D11*
X175811000Y-70866000D03*
X190711000Y-70866000D03*
D12*
X178892200Y-115976400D03*
D13*
X178892200Y-118516400D03*
D12*
X189052200Y-115976400D03*
D13*
X189052200Y-118516400D03*
D14*
X178866800Y-101193600D03*
D15*
X178866800Y-111353600D03*
D14*
X189026800Y-101193600D03*
D15*
X189026800Y-111353600D03*
D16*
X160655000Y-91059000D03*
X158115000Y-91059000D03*
X155575000Y-91059000D03*
X153035000Y-91059000D03*
X150495000Y-91059000D03*
X147955000Y-91059000D03*
X145415000Y-91059000D03*
X142875000Y-91059000D03*
X140335000Y-91059000D03*
X137795000Y-91059000D03*
X135255000Y-91059000D03*
X132715000Y-91059000D03*
X130175000Y-91059000D03*
X127635000Y-91059000D03*
X125095000Y-91059000D03*
X125095000Y-118999000D03*
X127635000Y-118999000D03*
X130175000Y-118999000D03*
X132715000Y-118999000D03*
X135255000Y-118999000D03*
X137795000Y-118999000D03*
X140335000Y-118999000D03*
X142875000Y-118999000D03*
X145415000Y-118999000D03*
X147955000Y-118999000D03*
X150495000Y-118999000D03*
X153035000Y-118999000D03*
X155575000Y-118999000D03*
X158115000Y-118999000D03*
X160655000Y-118999000D03*
D17*
X187016400Y-85471000D03*
X184516400Y-95471000D03*
X182016400Y-85471000D03*
D18*
X114655600Y-61315600D03*
X114655600Y-154584400D03*
X195224400Y-154584400D03*
X195224400Y-61315600D03*
D14*
X174345600Y-82600800D03*
D15*
X174345600Y-92760800D03*
D19*
X193802000Y-91059000D03*
X195072000Y-91059000D03*
D20*
X192532000Y-91059000D03*
D21*
X186613800Y-152552400D03*
D22*
X186613800Y-150012400D03*
X186613800Y-147472400D03*
X186613800Y-144932400D03*
X186613800Y-142392400D03*
X186613800Y-139852400D03*
X186613800Y-137312400D03*
X186613800Y-134772400D03*
D23*
X164236400Y-84582000D03*
X164236400Y-74549000D03*
X166776400Y-74549000D03*
X119634000Y-84582000D03*
X122174000Y-84582000D03*
X166776400Y-84582000D03*
X122174000Y-74549000D03*
X119634000Y-74549000D03*
D24*
X174345600Y-82600800D02*
X174345600Y-72331400D01*
X174345600Y-72331400D02*
X175811000Y-70866000D01*
X127635000Y-118999000D02*
X127635000Y-93319600D01*
X127635000Y-92405200D02*
X127635000Y-93319600D01*
X127635000Y-91059000D02*
X127635000Y-92405200D01*
X127635000Y-93319600D02*
X127558800Y-93395800D01*
X137795000Y-91059000D02*
X137795000Y-93395800D01*
X137795000Y-93395800D02*
X137820400Y-93395800D01*
X126644400Y-93395800D02*
X127558800Y-93395800D01*
X127558800Y-93395800D02*
X137820400Y-93395800D01*
X137820400Y-93395800D02*
X157632400Y-93395800D01*
X158115000Y-92913200D02*
X158115000Y-91059000D01*
X157632400Y-93395800D02*
X158115000Y-92913200D01*
X117754400Y-82575400D02*
X122174000Y-82575400D01*
X115722400Y-84607400D02*
X117754400Y-82575400D01*
X115722400Y-86842600D02*
X115722400Y-84607400D01*
X122275600Y-93395800D02*
X115722400Y-86842600D01*
X126644400Y-93395800D02*
X122275600Y-93395800D01*
X166776400Y-84582000D02*
X169164000Y-84582000D01*
X187016400Y-74189600D02*
X187016400Y-85471000D01*
X180670200Y-67843400D02*
X187016400Y-74189600D01*
X172212000Y-67843400D02*
X180670200Y-67843400D01*
X171043600Y-69011800D02*
X172212000Y-67843400D01*
X171043600Y-82702400D02*
X171043600Y-69011800D01*
X169164000Y-84582000D02*
X171043600Y-82702400D01*
X187016400Y-85471000D02*
X190957200Y-85471000D01*
X190957200Y-85471000D02*
X192532000Y-87045800D01*
X192532000Y-87045800D02*
X192532000Y-91059000D01*
X189026800Y-101193600D02*
X178866800Y-101193600D01*
X186613800Y-139852400D02*
X189636400Y-139852400D01*
X191668400Y-101193600D02*
X189026800Y-101193600D01*
X192684400Y-102209600D02*
X191668400Y-101193600D01*
X192684400Y-136804400D02*
X192684400Y-102209600D01*
X189636400Y-139852400D02*
X192684400Y-136804400D01*
X145415000Y-118999000D02*
X145415000Y-134315200D01*
X150952200Y-139852400D02*
X186613800Y-139852400D01*
X145415000Y-134315200D02*
X150952200Y-139852400D01*
X122174000Y-82575400D02*
X166776400Y-82575400D01*
X166776400Y-82575400D02*
X166674800Y-82575400D01*
X166674800Y-82575400D02*
X166776400Y-82575400D01*
X166776400Y-84582000D02*
X166776400Y-82575400D01*
X166776400Y-82575400D02*
X166776400Y-74549000D01*
X122174000Y-74549000D02*
X122174000Y-82575400D01*
X122174000Y-82575400D02*
X122174000Y-84582000D01*
X178866800Y-111353600D02*
X178866800Y-115951000D01*
X178866800Y-115951000D02*
X178892200Y-115976400D01*
X158115000Y-118999000D02*
X158115000Y-121488200D01*
X178892200Y-121412000D02*
X178892200Y-118516400D01*
X178231800Y-122072400D02*
X178892200Y-121412000D01*
X158699200Y-122072400D02*
X178231800Y-122072400D01*
X158115000Y-121488200D02*
X158699200Y-122072400D01*
X189026800Y-111353600D02*
X189026800Y-115951000D01*
X189026800Y-115951000D02*
X189052200Y-115976400D01*
X155575000Y-118999000D02*
X155575000Y-122682000D01*
X189052200Y-122555000D02*
X189052200Y-118516400D01*
X188214000Y-123393200D02*
X189052200Y-122555000D01*
X156286200Y-123393200D02*
X188214000Y-123393200D01*
X155575000Y-122682000D02*
X156286200Y-123393200D01*
X186613800Y-150012400D02*
X183286400Y-150012400D01*
X142875000Y-115214400D02*
X142875000Y-118999000D01*
X144297400Y-113792000D02*
X142875000Y-115214400D01*
X169113200Y-113792000D02*
X144297400Y-113792000D01*
X171323000Y-111582200D02*
X169113200Y-113792000D01*
X171323000Y-100457000D02*
X171323000Y-111582200D01*
X173990000Y-97790000D02*
X171323000Y-100457000D01*
X193014600Y-97790000D02*
X173990000Y-97790000D01*
X196113400Y-100888800D02*
X193014600Y-97790000D01*
X196113400Y-149631400D02*
X196113400Y-100888800D01*
X189636400Y-156108400D02*
X196113400Y-149631400D01*
X182422800Y-156108400D02*
X189636400Y-156108400D01*
X181000400Y-154686000D02*
X182422800Y-156108400D01*
X181000400Y-152298400D02*
X181000400Y-154686000D01*
X183286400Y-150012400D02*
X181000400Y-152298400D01*
X137795000Y-118999000D02*
X137795000Y-137795000D01*
X147472400Y-147472400D02*
X186613800Y-147472400D01*
X137795000Y-137795000D02*
X147472400Y-147472400D01*
X140335000Y-118999000D02*
X140335000Y-136956800D01*
X148310600Y-144932400D02*
X186613800Y-144932400D01*
X140335000Y-136956800D02*
X148310600Y-144932400D01*
X153035000Y-118999000D02*
X153035000Y-123698000D01*
X189153800Y-137312400D02*
X186613800Y-137312400D01*
X189992000Y-136474200D02*
X189153800Y-137312400D01*
X189992000Y-126517400D02*
X189992000Y-136474200D01*
X188645800Y-125171200D02*
X189992000Y-126517400D01*
X154508200Y-125171200D02*
X188645800Y-125171200D01*
X153035000Y-123698000D02*
X154508200Y-125171200D01*
X147955000Y-118999000D02*
X147955000Y-131521200D01*
X151206200Y-134772400D02*
X186613800Y-134772400D01*
X147955000Y-131521200D02*
X151206200Y-134772400D01*
X135255000Y-118999000D02*
X135255000Y-100355400D01*
X179552600Y-85471000D02*
X182016400Y-85471000D01*
X178333400Y-86690200D02*
X179552600Y-85471000D01*
X178333400Y-94157800D02*
X178333400Y-86690200D01*
X176377600Y-96113600D02*
X178333400Y-94157800D01*
X139496800Y-96113600D02*
X176377600Y-96113600D01*
X135255000Y-100355400D02*
X139496800Y-96113600D01*
X184516400Y-95471000D02*
X192209400Y-95471000D01*
X193802000Y-93878400D02*
X193802000Y-91059000D01*
X192209400Y-95471000D02*
X193802000Y-93878400D01*
X125095000Y-91059000D02*
X125095000Y-89128600D01*
X125095000Y-89128600D02*
X125018800Y-89052400D01*
X119634000Y-84582000D02*
X119634000Y-87553800D01*
X171780200Y-92760800D02*
X174345600Y-92760800D01*
X171196000Y-92176600D02*
X171780200Y-92760800D01*
X171196000Y-90271600D02*
X171196000Y-92176600D01*
X169976800Y-89052400D02*
X171196000Y-90271600D01*
X121132600Y-89052400D02*
X125018800Y-89052400D01*
X125018800Y-89052400D02*
X169976800Y-89052400D01*
X119634000Y-87553800D02*
X121132600Y-89052400D01*
X190711000Y-70866000D02*
X194030600Y-70866000D01*
X195072000Y-71907400D02*
X195072000Y-91059000D01*
X194030600Y-70866000D02*
X195072000Y-71907400D01*
X150495000Y-118999000D02*
X150495000Y-116662200D01*
X189560200Y-152552400D02*
X186613800Y-152552400D01*
X194437000Y-147675600D02*
X189560200Y-152552400D01*
X194437000Y-101879400D02*
X194437000Y-147675600D01*
X192049400Y-99491800D02*
X194437000Y-101879400D01*
X175310800Y-99491800D02*
X192049400Y-99491800D01*
X173710600Y-101092000D02*
X175310800Y-99491800D01*
X173710600Y-112547400D02*
X173710600Y-101092000D01*
X170053000Y-116205000D02*
X173710600Y-112547400D01*
X150952200Y-116205000D02*
X170053000Y-116205000D01*
X150495000Y-116662200D02*
X150952200Y-116205000D01*
M02*
