M48
;DRILL file {KiCad 4.0.7-e2-6376~58~ubuntu16.04.1} date Fri Mar  9 08:47:16 2018
;FORMAT={-:-/ absolute / metric / decimal}
FMAT,2
METRIC,TZ
T1C0.600
T2C0.762
T3C0.800
T4C0.900
T5C1.000
T6C1.016
T7C1.300
T8C2.000
%
G90
G05
M71
T1
X192.532Y-91.059
X193.802Y-91.059
X195.072Y-91.059
T2
X125.095Y-91.059
X125.095Y-118.999
X127.635Y-91.059
X127.635Y-118.999
X130.175Y-91.059
X130.175Y-118.999
X132.715Y-91.059
X132.715Y-118.999
X135.255Y-91.059
X135.255Y-118.999
X137.795Y-91.059
X137.795Y-118.999
X140.335Y-91.059
X140.335Y-118.999
X142.875Y-91.059
X142.875Y-118.999
X145.415Y-91.059
X145.415Y-118.999
X147.955Y-91.059
X147.955Y-118.999
X150.495Y-91.059
X150.495Y-118.999
X153.035Y-91.059
X153.035Y-118.999
X155.575Y-91.059
X155.575Y-118.999
X158.115Y-91.059
X158.115Y-118.999
X160.655Y-91.059
X160.655Y-118.999
T3
X174.346Y-82.601
X174.346Y-92.761
X178.867Y-101.194
X178.867Y-111.354
X189.027Y-101.194
X189.027Y-111.354
T4
X178.892Y-115.976
X178.892Y-118.516
X189.052Y-115.976
X189.052Y-118.516
T5
X175.811Y-70.866
X186.614Y-134.772
X186.614Y-137.312
X186.614Y-139.852
X186.614Y-142.392
X186.614Y-144.932
X186.614Y-147.472
X186.614Y-150.012
X186.614Y-152.552
X190.711Y-70.866
T6
X119.634Y-74.549
X119.634Y-84.582
X122.174Y-74.549
X122.174Y-84.582
X164.236Y-74.549
X164.236Y-84.582
X166.776Y-74.549
X166.776Y-84.582
T7
X182.016Y-85.471
X184.516Y-95.471
X187.016Y-85.471
T8
X114.656Y-61.316
X114.656Y-154.584
X195.224Y-61.316
X195.224Y-154.584
T0
M30
