G04 #@! TF.FileFunction,Legend,Top*
%FSLAX46Y46*%
G04 Gerber Fmt 4.6, Leading zero omitted, Abs format (unit mm)*
G04 Created by KiCad (PCBNEW 4.0.7-e2-6376~58~ubuntu16.04.1) date Fri Mar  9 08:47:09 2018*
%MOMM*%
%LPD*%
G01*
G04 APERTURE LIST*
%ADD10C,0.100000*%
%ADD11C,0.150000*%
%ADD12C,0.120000*%
G04 APERTURE END LIST*
D10*
D11*
X194711070Y-70866000D02*
G75*
G03X194711070Y-70866000I-11450070J0D01*
G01*
D12*
X178891738Y-120236400D02*
G75*
G03X180437030Y-114686400I462J2990000D01*
G01*
X178892662Y-120236400D02*
G75*
G02X177347370Y-114686400I-462J2990000D01*
G01*
X181392200Y-117246400D02*
G75*
G03X181392200Y-117246400I-2500000J0D01*
G01*
X180437200Y-114686400D02*
X177347200Y-114686400D01*
X189051738Y-120236400D02*
G75*
G03X190597030Y-114686400I462J2990000D01*
G01*
X189052662Y-120236400D02*
G75*
G02X187507370Y-114686400I-462J2990000D01*
G01*
X191552200Y-117246400D02*
G75*
G03X191552200Y-117246400I-2500000J0D01*
G01*
X190597200Y-114686400D02*
X187507200Y-114686400D01*
X180176800Y-103063600D02*
X177556800Y-103063600D01*
X177556800Y-103063600D02*
X177556800Y-109483600D01*
X177556800Y-109483600D02*
X180176800Y-109483600D01*
X180176800Y-109483600D02*
X180176800Y-103063600D01*
X178866800Y-102173600D02*
X178866800Y-103063600D01*
X178866800Y-110373600D02*
X178866800Y-109483600D01*
X190336800Y-103063600D02*
X187716800Y-103063600D01*
X187716800Y-103063600D02*
X187716800Y-109483600D01*
X187716800Y-109483600D02*
X190336800Y-109483600D01*
X190336800Y-109483600D02*
X190336800Y-103063600D01*
X189026800Y-102173600D02*
X189026800Y-103063600D01*
X189026800Y-110373600D02*
X189026800Y-109483600D01*
D11*
X162700000Y-99029000D02*
X162700000Y-111029000D01*
X162700000Y-111029000D02*
X148700000Y-111029000D01*
X148700000Y-111029000D02*
X148700000Y-99029000D01*
X148700000Y-99029000D02*
X162700000Y-99029000D01*
X163830000Y-107569000D02*
X163830000Y-99949000D01*
X163830000Y-99949000D02*
X168910000Y-99949000D01*
X168910000Y-99949000D02*
X168910000Y-101219000D01*
X168910000Y-101219000D02*
X165100000Y-101219000D01*
X165100000Y-101219000D02*
X165100000Y-102489000D01*
X165100000Y-102489000D02*
X168910000Y-102489000D01*
X168910000Y-102489000D02*
X168910000Y-103759000D01*
X168910000Y-103759000D02*
X165100000Y-103759000D01*
X165100000Y-103759000D02*
X165100000Y-105029000D01*
X165100000Y-105029000D02*
X168910000Y-105029000D01*
X168910000Y-105029000D02*
X168910000Y-106299000D01*
X168910000Y-106299000D02*
X165100000Y-106299000D01*
X165100000Y-106299000D02*
X165100000Y-107569000D01*
X165100000Y-107569000D02*
X168910000Y-107569000D01*
X168910000Y-107569000D02*
X168910000Y-111379000D01*
X111760000Y-101219000D02*
X111760000Y-108839000D01*
X111760000Y-108839000D02*
X118110000Y-108839000D01*
X118110000Y-108839000D02*
X118110000Y-101219000D01*
X118110000Y-101219000D02*
X111760000Y-101219000D01*
X117366051Y-117729000D02*
G75*
G03X117366051Y-117729000I-1796051J0D01*
G01*
X117366051Y-92329000D02*
G75*
G03X117366051Y-92329000I-1796051J0D01*
G01*
X169436051Y-92329000D02*
G75*
G03X169436051Y-92329000I-1796051J0D01*
G01*
X169436051Y-117729000D02*
G75*
G03X169436051Y-117729000I-1796051J0D01*
G01*
X170200000Y-120279000D02*
X170200000Y-90279000D01*
X170200000Y-90279000D02*
X170200000Y-89779000D01*
X170200000Y-89779000D02*
X113200000Y-89779000D01*
X113200000Y-89779000D02*
X113200000Y-120279000D01*
X113200000Y-120279000D02*
X170200000Y-120279000D01*
D12*
X183230329Y-95479173D02*
G75*
G02X179456400Y-90471000I1436071J5008173D01*
G01*
X188016347Y-86480383D02*
G75*
G02X185837400Y-95548000I-3349947J-3990617D01*
G01*
X183317533Y-85437928D02*
G75*
G02X185660400Y-85356000I1348867J-5033072D01*
G01*
X179457143Y-90561657D02*
G75*
G02X181180400Y-86599000I5209257J90657D01*
G01*
X186166400Y-90471000D02*
G75*
G03X186166400Y-90471000I-1500000J0D01*
G01*
X116145600Y-61315600D02*
G75*
G03X116145600Y-61315600I-1490000J0D01*
G01*
X116145600Y-154584400D02*
G75*
G03X116145600Y-154584400I-1490000J0D01*
G01*
X196714400Y-154584400D02*
G75*
G03X196714400Y-154584400I-1490000J0D01*
G01*
X196714400Y-61315600D02*
G75*
G03X196714400Y-61315600I-1490000J0D01*
G01*
X175655600Y-84470800D02*
X173035600Y-84470800D01*
X173035600Y-84470800D02*
X173035600Y-90890800D01*
X173035600Y-90890800D02*
X175655600Y-90890800D01*
X175655600Y-90890800D02*
X175655600Y-84470800D01*
X174345600Y-83580800D02*
X174345600Y-84470800D01*
X174345600Y-91780800D02*
X174345600Y-90890800D01*
X192002000Y-92909000D02*
X195602000Y-92909000D01*
X191963522Y-92897478D02*
G75*
G02X193802000Y-88459000I1838478J1838478D01*
G01*
X195640478Y-92897478D02*
G75*
G03X193802000Y-88459000I-1838478J1838478D01*
G01*
X187943800Y-133442400D02*
X185283800Y-133442400D01*
X187943800Y-151282400D02*
X187943800Y-133442400D01*
X185283800Y-151282400D02*
X185283800Y-133442400D01*
X187943800Y-151282400D02*
X185283800Y-151282400D01*
X187943800Y-152552400D02*
X187943800Y-153882400D01*
X187943800Y-153882400D02*
X186613800Y-153882400D01*
D11*
X117094000Y-56896000D02*
X117094000Y-85979000D01*
X117094000Y-85979000D02*
X119126000Y-88011000D01*
X119126000Y-88011000D02*
X122936000Y-88011000D01*
X122936000Y-88011000D02*
X127000000Y-84963000D01*
X127000000Y-84963000D02*
X159766000Y-84963000D01*
X163830000Y-88011000D02*
X159766000Y-84963000D01*
X167640000Y-88011000D02*
X169672000Y-85979000D01*
X169672000Y-85979000D02*
X169672000Y-56896000D01*
X169672000Y-56896000D02*
X117094000Y-56896000D01*
X167640000Y-88011000D02*
X163830000Y-88011000D01*
X182775048Y-77539571D02*
X182917905Y-77587190D01*
X182965524Y-77634810D01*
X183013143Y-77730048D01*
X183013143Y-77872905D01*
X182965524Y-77968143D01*
X182917905Y-78015762D01*
X182822667Y-78063381D01*
X182441714Y-78063381D01*
X182441714Y-77063381D01*
X182775048Y-77063381D01*
X182870286Y-77111000D01*
X182917905Y-77158619D01*
X182965524Y-77253857D01*
X182965524Y-77349095D01*
X182917905Y-77444333D01*
X182870286Y-77491952D01*
X182775048Y-77539571D01*
X182441714Y-77539571D01*
X183346476Y-77063381D02*
X184013143Y-77063381D01*
X183346476Y-78063381D01*
X184013143Y-78063381D01*
X184917905Y-78063381D02*
X184346476Y-78063381D01*
X184632190Y-78063381D02*
X184632190Y-77063381D01*
X184536952Y-77206238D01*
X184441714Y-77301476D01*
X184346476Y-77349095D01*
X175128181Y-115520695D02*
X174128181Y-115520695D01*
X174128181Y-115282600D01*
X174175800Y-115139742D01*
X174271038Y-115044504D01*
X174366276Y-114996885D01*
X174556752Y-114949266D01*
X174699610Y-114949266D01*
X174890086Y-114996885D01*
X174985324Y-115044504D01*
X175080562Y-115139742D01*
X175128181Y-115282600D01*
X175128181Y-115520695D01*
X175128181Y-113996885D02*
X175128181Y-114568314D01*
X175128181Y-114282600D02*
X174128181Y-114282600D01*
X174271038Y-114377838D01*
X174366276Y-114473076D01*
X174413895Y-114568314D01*
X185288181Y-115368295D02*
X184288181Y-115368295D01*
X184288181Y-115130200D01*
X184335800Y-114987342D01*
X184431038Y-114892104D01*
X184526276Y-114844485D01*
X184716752Y-114796866D01*
X184859610Y-114796866D01*
X185050086Y-114844485D01*
X185145324Y-114892104D01*
X185240562Y-114987342D01*
X185288181Y-115130200D01*
X185288181Y-115368295D01*
X184383419Y-114415914D02*
X184335800Y-114368295D01*
X184288181Y-114273057D01*
X184288181Y-114034961D01*
X184335800Y-113939723D01*
X184383419Y-113892104D01*
X184478657Y-113844485D01*
X184573895Y-113844485D01*
X184716752Y-113892104D01*
X185288181Y-114463533D01*
X185288181Y-113844485D01*
X181629181Y-106440266D02*
X181152990Y-106773600D01*
X181629181Y-107011695D02*
X180629181Y-107011695D01*
X180629181Y-106630742D01*
X180676800Y-106535504D01*
X180724419Y-106487885D01*
X180819657Y-106440266D01*
X180962514Y-106440266D01*
X181057752Y-106487885D01*
X181105371Y-106535504D01*
X181152990Y-106630742D01*
X181152990Y-107011695D01*
X181629181Y-105487885D02*
X181629181Y-106059314D01*
X181629181Y-105773600D02*
X180629181Y-105773600D01*
X180772038Y-105868838D01*
X180867276Y-105964076D01*
X180914895Y-106059314D01*
X191789181Y-106440266D02*
X191312990Y-106773600D01*
X191789181Y-107011695D02*
X190789181Y-107011695D01*
X190789181Y-106630742D01*
X190836800Y-106535504D01*
X190884419Y-106487885D01*
X190979657Y-106440266D01*
X191122514Y-106440266D01*
X191217752Y-106487885D01*
X191265371Y-106535504D01*
X191312990Y-106630742D01*
X191312990Y-107011695D01*
X190884419Y-106059314D02*
X190836800Y-106011695D01*
X190789181Y-105916457D01*
X190789181Y-105678361D01*
X190836800Y-105583123D01*
X190884419Y-105535504D01*
X190979657Y-105487885D01*
X191074895Y-105487885D01*
X191217752Y-105535504D01*
X191789181Y-106106933D01*
X191789181Y-105487885D01*
X139152381Y-105790905D02*
X139961905Y-105790905D01*
X140057143Y-105743286D01*
X140104762Y-105695667D01*
X140152381Y-105600429D01*
X140152381Y-105409952D01*
X140104762Y-105314714D01*
X140057143Y-105267095D01*
X139961905Y-105219476D01*
X139152381Y-105219476D01*
X140152381Y-104219476D02*
X140152381Y-104790905D01*
X140152381Y-104505191D02*
X139152381Y-104505191D01*
X139295238Y-104600429D01*
X139390476Y-104695667D01*
X139438095Y-104790905D01*
X124547381Y-94694238D02*
X125547381Y-94360905D01*
X124547381Y-94027571D01*
X125547381Y-93694238D02*
X124547381Y-93694238D01*
X125547381Y-93218048D02*
X124547381Y-93218048D01*
X125547381Y-92646619D01*
X124547381Y-92646619D01*
X127135000Y-93337095D02*
X127087381Y-93432333D01*
X127087381Y-93575190D01*
X127135000Y-93718048D01*
X127230238Y-93813286D01*
X127325476Y-93860905D01*
X127515952Y-93908524D01*
X127658810Y-93908524D01*
X127849286Y-93860905D01*
X127944524Y-93813286D01*
X128039762Y-93718048D01*
X128087381Y-93575190D01*
X128087381Y-93479952D01*
X128039762Y-93337095D01*
X127992143Y-93289476D01*
X127658810Y-93289476D01*
X127658810Y-93479952D01*
X130754381Y-94654619D02*
X130278190Y-94987953D01*
X130754381Y-95226048D02*
X129754381Y-95226048D01*
X129754381Y-94845095D01*
X129802000Y-94749857D01*
X129849619Y-94702238D01*
X129944857Y-94654619D01*
X130087714Y-94654619D01*
X130182952Y-94702238D01*
X130230571Y-94749857D01*
X130278190Y-94845095D01*
X130278190Y-95226048D01*
X130706762Y-94273667D02*
X130754381Y-94130810D01*
X130754381Y-93892714D01*
X130706762Y-93797476D01*
X130659143Y-93749857D01*
X130563905Y-93702238D01*
X130468667Y-93702238D01*
X130373429Y-93749857D01*
X130325810Y-93797476D01*
X130278190Y-93892714D01*
X130230571Y-94083191D01*
X130182952Y-94178429D01*
X130135333Y-94226048D01*
X130040095Y-94273667D01*
X129944857Y-94273667D01*
X129849619Y-94226048D01*
X129802000Y-94178429D01*
X129754381Y-94083191D01*
X129754381Y-93845095D01*
X129802000Y-93702238D01*
X129754381Y-93416524D02*
X129754381Y-92845095D01*
X130754381Y-93130810D02*
X129754381Y-93130810D01*
X132643571Y-94337095D02*
X132643571Y-94003761D01*
X133167381Y-93860904D02*
X133167381Y-94337095D01*
X132167381Y-94337095D01*
X132167381Y-93860904D01*
X133167381Y-93432333D02*
X132167381Y-93432333D01*
X133167381Y-92860904D01*
X132167381Y-92860904D01*
X134707381Y-94360905D02*
X134707381Y-93741857D01*
X135088333Y-94075191D01*
X135088333Y-93932333D01*
X135135952Y-93837095D01*
X135183571Y-93789476D01*
X135278810Y-93741857D01*
X135516905Y-93741857D01*
X135612143Y-93789476D01*
X135659762Y-93837095D01*
X135707381Y-93932333D01*
X135707381Y-94218048D01*
X135659762Y-94313286D01*
X135612143Y-94360905D01*
X134707381Y-93456143D02*
X135707381Y-93122810D01*
X134707381Y-92789476D01*
X137295000Y-93337095D02*
X137247381Y-93432333D01*
X137247381Y-93575190D01*
X137295000Y-93718048D01*
X137390238Y-93813286D01*
X137485476Y-93860905D01*
X137675952Y-93908524D01*
X137818810Y-93908524D01*
X138009286Y-93860905D01*
X138104524Y-93813286D01*
X138199762Y-93718048D01*
X138247381Y-93575190D01*
X138247381Y-93479952D01*
X138199762Y-93337095D01*
X138152143Y-93289476D01*
X137818810Y-93289476D01*
X137818810Y-93479952D01*
X140739762Y-94384714D02*
X140787381Y-94241857D01*
X140787381Y-94003761D01*
X140739762Y-93908523D01*
X140692143Y-93860904D01*
X140596905Y-93813285D01*
X140501667Y-93813285D01*
X140406429Y-93860904D01*
X140358810Y-93908523D01*
X140311190Y-94003761D01*
X140263571Y-94194238D01*
X140215952Y-94289476D01*
X140168333Y-94337095D01*
X140073095Y-94384714D01*
X139977857Y-94384714D01*
X139882619Y-94337095D01*
X139835000Y-94289476D01*
X139787381Y-94194238D01*
X139787381Y-93956142D01*
X139835000Y-93813285D01*
X140787381Y-93384714D02*
X139787381Y-93384714D01*
X140787381Y-92813285D02*
X140215952Y-93241857D01*
X139787381Y-92813285D02*
X140358810Y-93384714D01*
X143279762Y-94408524D02*
X143327381Y-94265667D01*
X143327381Y-94027571D01*
X143279762Y-93932333D01*
X143232143Y-93884714D01*
X143136905Y-93837095D01*
X143041667Y-93837095D01*
X142946429Y-93884714D01*
X142898810Y-93932333D01*
X142851190Y-94027571D01*
X142803571Y-94218048D01*
X142755952Y-94313286D01*
X142708333Y-94360905D01*
X142613095Y-94408524D01*
X142517857Y-94408524D01*
X142422619Y-94360905D01*
X142375000Y-94313286D01*
X142327381Y-94218048D01*
X142327381Y-93979952D01*
X142375000Y-93837095D01*
X142327381Y-93218048D02*
X142327381Y-93027571D01*
X142375000Y-92932333D01*
X142470238Y-92837095D01*
X142660714Y-92789476D01*
X142994048Y-92789476D01*
X143184524Y-92837095D01*
X143279762Y-92932333D01*
X143327381Y-93027571D01*
X143327381Y-93218048D01*
X143279762Y-93313286D01*
X143184524Y-93408524D01*
X142994048Y-93456143D01*
X142660714Y-93456143D01*
X142470238Y-93408524D01*
X142375000Y-93313286D01*
X142327381Y-93218048D01*
X145819762Y-94384714D02*
X145867381Y-94241857D01*
X145867381Y-94003761D01*
X145819762Y-93908523D01*
X145772143Y-93860904D01*
X145676905Y-93813285D01*
X145581667Y-93813285D01*
X145486429Y-93860904D01*
X145438810Y-93908523D01*
X145391190Y-94003761D01*
X145343571Y-94194238D01*
X145295952Y-94289476D01*
X145248333Y-94337095D01*
X145153095Y-94384714D01*
X145057857Y-94384714D01*
X144962619Y-94337095D01*
X144915000Y-94289476D01*
X144867381Y-94194238D01*
X144867381Y-93956142D01*
X144915000Y-93813285D01*
X145772143Y-92813285D02*
X145819762Y-92860904D01*
X145867381Y-93003761D01*
X145867381Y-93098999D01*
X145819762Y-93241857D01*
X145724524Y-93337095D01*
X145629286Y-93384714D01*
X145438810Y-93432333D01*
X145295952Y-93432333D01*
X145105476Y-93384714D01*
X145010238Y-93337095D01*
X144915000Y-93241857D01*
X144867381Y-93098999D01*
X144867381Y-93003761D01*
X144915000Y-92860904D01*
X144962619Y-92813285D01*
X148359762Y-94360905D02*
X148407381Y-94218048D01*
X148407381Y-93979952D01*
X148359762Y-93884714D01*
X148312143Y-93837095D01*
X148216905Y-93789476D01*
X148121667Y-93789476D01*
X148026429Y-93837095D01*
X147978810Y-93884714D01*
X147931190Y-93979952D01*
X147883571Y-94170429D01*
X147835952Y-94265667D01*
X147788333Y-94313286D01*
X147693095Y-94360905D01*
X147597857Y-94360905D01*
X147502619Y-94313286D01*
X147455000Y-94265667D01*
X147407381Y-94170429D01*
X147407381Y-93932333D01*
X147455000Y-93789476D01*
X148407381Y-92837095D02*
X148407381Y-93408524D01*
X148407381Y-93122810D02*
X147407381Y-93122810D01*
X147550238Y-93218048D01*
X147645476Y-93313286D01*
X147693095Y-93408524D01*
X150899762Y-94360905D02*
X150947381Y-94218048D01*
X150947381Y-93979952D01*
X150899762Y-93884714D01*
X150852143Y-93837095D01*
X150756905Y-93789476D01*
X150661667Y-93789476D01*
X150566429Y-93837095D01*
X150518810Y-93884714D01*
X150471190Y-93979952D01*
X150423571Y-94170429D01*
X150375952Y-94265667D01*
X150328333Y-94313286D01*
X150233095Y-94360905D01*
X150137857Y-94360905D01*
X150042619Y-94313286D01*
X149995000Y-94265667D01*
X149947381Y-94170429D01*
X149947381Y-93932333D01*
X149995000Y-93789476D01*
X150042619Y-93408524D02*
X149995000Y-93360905D01*
X149947381Y-93265667D01*
X149947381Y-93027571D01*
X149995000Y-92932333D01*
X150042619Y-92884714D01*
X150137857Y-92837095D01*
X150233095Y-92837095D01*
X150375952Y-92884714D01*
X150947381Y-93456143D01*
X150947381Y-92837095D01*
X153439762Y-94360905D02*
X153487381Y-94218048D01*
X153487381Y-93979952D01*
X153439762Y-93884714D01*
X153392143Y-93837095D01*
X153296905Y-93789476D01*
X153201667Y-93789476D01*
X153106429Y-93837095D01*
X153058810Y-93884714D01*
X153011190Y-93979952D01*
X152963571Y-94170429D01*
X152915952Y-94265667D01*
X152868333Y-94313286D01*
X152773095Y-94360905D01*
X152677857Y-94360905D01*
X152582619Y-94313286D01*
X152535000Y-94265667D01*
X152487381Y-94170429D01*
X152487381Y-93932333D01*
X152535000Y-93789476D01*
X152487381Y-93456143D02*
X152487381Y-92837095D01*
X152868333Y-93170429D01*
X152868333Y-93027571D01*
X152915952Y-92932333D01*
X152963571Y-92884714D01*
X153058810Y-92837095D01*
X153296905Y-92837095D01*
X153392143Y-92884714D01*
X153439762Y-92932333D01*
X153487381Y-93027571D01*
X153487381Y-93313286D01*
X153439762Y-93408524D01*
X153392143Y-93456143D01*
X155027381Y-94456143D02*
X156027381Y-94122810D01*
X155027381Y-93789476D01*
X155027381Y-93456143D02*
X155836905Y-93456143D01*
X155932143Y-93408524D01*
X155979762Y-93360905D01*
X156027381Y-93265667D01*
X156027381Y-93075190D01*
X155979762Y-92979952D01*
X155932143Y-92932333D01*
X155836905Y-92884714D01*
X155027381Y-92884714D01*
X157615000Y-93337095D02*
X157567381Y-93432333D01*
X157567381Y-93575190D01*
X157615000Y-93718048D01*
X157710238Y-93813286D01*
X157805476Y-93860905D01*
X157995952Y-93908524D01*
X158138810Y-93908524D01*
X158329286Y-93860905D01*
X158424524Y-93813286D01*
X158519762Y-93718048D01*
X158567381Y-93575190D01*
X158567381Y-93479952D01*
X158519762Y-93337095D01*
X158472143Y-93289476D01*
X158138810Y-93289476D01*
X158138810Y-93479952D01*
X160821667Y-94313286D02*
X160821667Y-93837095D01*
X161107381Y-94408524D02*
X160107381Y-94075191D01*
X161107381Y-93741857D01*
X160107381Y-93218048D02*
X160107381Y-93122809D01*
X160155000Y-93027571D01*
X160202619Y-92979952D01*
X160297857Y-92932333D01*
X160488333Y-92884714D01*
X160726429Y-92884714D01*
X160916905Y-92932333D01*
X161012143Y-92979952D01*
X161059762Y-93027571D01*
X161107381Y-93122809D01*
X161107381Y-93218048D01*
X161059762Y-93313286D01*
X161012143Y-93360905D01*
X160916905Y-93408524D01*
X160726429Y-93456143D01*
X160488333Y-93456143D01*
X160297857Y-93408524D01*
X160202619Y-93360905D01*
X160155000Y-93313286D01*
X160107381Y-93218048D01*
X124547381Y-117220905D02*
X124547381Y-116601857D01*
X124928333Y-116935191D01*
X124928333Y-116792333D01*
X124975952Y-116697095D01*
X125023571Y-116649476D01*
X125118810Y-116601857D01*
X125356905Y-116601857D01*
X125452143Y-116649476D01*
X125499762Y-116697095D01*
X125547381Y-116792333D01*
X125547381Y-117078048D01*
X125499762Y-117173286D01*
X125452143Y-117220905D01*
X124547381Y-116316143D02*
X125547381Y-115982810D01*
X124547381Y-115649476D01*
X127135000Y-116197095D02*
X127087381Y-116292333D01*
X127087381Y-116435190D01*
X127135000Y-116578048D01*
X127230238Y-116673286D01*
X127325476Y-116720905D01*
X127515952Y-116768524D01*
X127658810Y-116768524D01*
X127849286Y-116720905D01*
X127944524Y-116673286D01*
X128039762Y-116578048D01*
X128087381Y-116435190D01*
X128087381Y-116339952D01*
X128039762Y-116197095D01*
X127992143Y-116149476D01*
X127658810Y-116149476D01*
X127658810Y-116339952D01*
X129627381Y-117220905D02*
X129627381Y-116649476D01*
X130627381Y-116935191D02*
X129627381Y-116935191D01*
X129627381Y-116411381D02*
X130627381Y-115744714D01*
X129627381Y-115744714D02*
X130627381Y-116411381D01*
X133167381Y-116625666D02*
X132691190Y-116959000D01*
X133167381Y-117197095D02*
X132167381Y-117197095D01*
X132167381Y-116816142D01*
X132215000Y-116720904D01*
X132262619Y-116673285D01*
X132357857Y-116625666D01*
X132500714Y-116625666D01*
X132595952Y-116673285D01*
X132643571Y-116720904D01*
X132691190Y-116816142D01*
X132691190Y-117197095D01*
X132167381Y-116292333D02*
X133167381Y-115625666D01*
X132167381Y-115625666D02*
X133167381Y-116292333D01*
X135834381Y-117197095D02*
X134834381Y-117197095D01*
X134834381Y-116959000D01*
X134882000Y-116816142D01*
X134977238Y-116720904D01*
X135072476Y-116673285D01*
X135262952Y-116625666D01*
X135405810Y-116625666D01*
X135596286Y-116673285D01*
X135691524Y-116720904D01*
X135786762Y-116816142D01*
X135834381Y-116959000D01*
X135834381Y-117197095D01*
X135262952Y-116054238D02*
X135215333Y-116149476D01*
X135167714Y-116197095D01*
X135072476Y-116244714D01*
X135024857Y-116244714D01*
X134929619Y-116197095D01*
X134882000Y-116149476D01*
X134834381Y-116054238D01*
X134834381Y-115863761D01*
X134882000Y-115768523D01*
X134929619Y-115720904D01*
X135024857Y-115673285D01*
X135072476Y-115673285D01*
X135167714Y-115720904D01*
X135215333Y-115768523D01*
X135262952Y-115863761D01*
X135262952Y-116054238D01*
X135310571Y-116149476D01*
X135358190Y-116197095D01*
X135453429Y-116244714D01*
X135643905Y-116244714D01*
X135739143Y-116197095D01*
X135786762Y-116149476D01*
X135834381Y-116054238D01*
X135834381Y-115863761D01*
X135786762Y-115768523D01*
X135739143Y-115720904D01*
X135643905Y-115673285D01*
X135453429Y-115673285D01*
X135358190Y-115720904D01*
X135310571Y-115768523D01*
X135262952Y-115863761D01*
X138247381Y-117197095D02*
X137247381Y-117197095D01*
X137247381Y-116959000D01*
X137295000Y-116816142D01*
X137390238Y-116720904D01*
X137485476Y-116673285D01*
X137675952Y-116625666D01*
X137818810Y-116625666D01*
X138009286Y-116673285D01*
X138104524Y-116720904D01*
X138199762Y-116816142D01*
X138247381Y-116959000D01*
X138247381Y-117197095D01*
X137247381Y-116292333D02*
X137247381Y-115625666D01*
X138247381Y-116054238D01*
X140787381Y-117197095D02*
X139787381Y-117197095D01*
X139787381Y-116959000D01*
X139835000Y-116816142D01*
X139930238Y-116720904D01*
X140025476Y-116673285D01*
X140215952Y-116625666D01*
X140358810Y-116625666D01*
X140549286Y-116673285D01*
X140644524Y-116720904D01*
X140739762Y-116816142D01*
X140787381Y-116959000D01*
X140787381Y-117197095D01*
X139787381Y-115768523D02*
X139787381Y-115959000D01*
X139835000Y-116054238D01*
X139882619Y-116101857D01*
X140025476Y-116197095D01*
X140215952Y-116244714D01*
X140596905Y-116244714D01*
X140692143Y-116197095D01*
X140739762Y-116149476D01*
X140787381Y-116054238D01*
X140787381Y-115863761D01*
X140739762Y-115768523D01*
X140692143Y-115720904D01*
X140596905Y-115673285D01*
X140358810Y-115673285D01*
X140263571Y-115720904D01*
X140215952Y-115768523D01*
X140168333Y-115863761D01*
X140168333Y-116054238D01*
X140215952Y-116149476D01*
X140263571Y-116197095D01*
X140358810Y-116244714D01*
X143454381Y-117197095D02*
X142454381Y-117197095D01*
X142454381Y-116959000D01*
X142502000Y-116816142D01*
X142597238Y-116720904D01*
X142692476Y-116673285D01*
X142882952Y-116625666D01*
X143025810Y-116625666D01*
X143216286Y-116673285D01*
X143311524Y-116720904D01*
X143406762Y-116816142D01*
X143454381Y-116959000D01*
X143454381Y-117197095D01*
X142454381Y-115720904D02*
X142454381Y-116197095D01*
X142930571Y-116244714D01*
X142882952Y-116197095D01*
X142835333Y-116101857D01*
X142835333Y-115863761D01*
X142882952Y-115768523D01*
X142930571Y-115720904D01*
X143025810Y-115673285D01*
X143263905Y-115673285D01*
X143359143Y-115720904D01*
X143406762Y-115768523D01*
X143454381Y-115863761D01*
X143454381Y-116101857D01*
X143406762Y-116197095D01*
X143359143Y-116244714D01*
X144915000Y-116197095D02*
X144867381Y-116292333D01*
X144867381Y-116435190D01*
X144915000Y-116578048D01*
X145010238Y-116673286D01*
X145105476Y-116720905D01*
X145295952Y-116768524D01*
X145438810Y-116768524D01*
X145629286Y-116720905D01*
X145724524Y-116673286D01*
X145819762Y-116578048D01*
X145867381Y-116435190D01*
X145867381Y-116339952D01*
X145819762Y-116197095D01*
X145772143Y-116149476D01*
X145438810Y-116149476D01*
X145438810Y-116339952D01*
X147407381Y-117220905D02*
X147407381Y-116601857D01*
X147788333Y-116935191D01*
X147788333Y-116792333D01*
X147835952Y-116697095D01*
X147883571Y-116649476D01*
X147978810Y-116601857D01*
X148216905Y-116601857D01*
X148312143Y-116649476D01*
X148359762Y-116697095D01*
X148407381Y-116792333D01*
X148407381Y-117078048D01*
X148359762Y-117173286D01*
X148312143Y-117220905D01*
X147407381Y-116316143D02*
X148407381Y-115982810D01*
X147407381Y-115649476D01*
X151074381Y-117197095D02*
X150074381Y-117197095D01*
X150074381Y-116959000D01*
X150122000Y-116816142D01*
X150217238Y-116720904D01*
X150312476Y-116673285D01*
X150502952Y-116625666D01*
X150645810Y-116625666D01*
X150836286Y-116673285D01*
X150931524Y-116720904D01*
X151026762Y-116816142D01*
X151074381Y-116959000D01*
X151074381Y-117197095D01*
X150407714Y-115768523D02*
X151074381Y-115768523D01*
X150026762Y-116006619D02*
X150741048Y-116244714D01*
X150741048Y-115625666D01*
X153487381Y-117197095D02*
X152487381Y-117197095D01*
X152487381Y-116959000D01*
X152535000Y-116816142D01*
X152630238Y-116720904D01*
X152725476Y-116673285D01*
X152915952Y-116625666D01*
X153058810Y-116625666D01*
X153249286Y-116673285D01*
X153344524Y-116720904D01*
X153439762Y-116816142D01*
X153487381Y-116959000D01*
X153487381Y-117197095D01*
X152487381Y-116292333D02*
X152487381Y-115673285D01*
X152868333Y-116006619D01*
X152868333Y-115863761D01*
X152915952Y-115768523D01*
X152963571Y-115720904D01*
X153058810Y-115673285D01*
X153296905Y-115673285D01*
X153392143Y-115720904D01*
X153439762Y-115768523D01*
X153487381Y-115863761D01*
X153487381Y-116149476D01*
X153439762Y-116244714D01*
X153392143Y-116292333D01*
X156027381Y-117197095D02*
X155027381Y-117197095D01*
X155027381Y-116959000D01*
X155075000Y-116816142D01*
X155170238Y-116720904D01*
X155265476Y-116673285D01*
X155455952Y-116625666D01*
X155598810Y-116625666D01*
X155789286Y-116673285D01*
X155884524Y-116720904D01*
X155979762Y-116816142D01*
X156027381Y-116959000D01*
X156027381Y-117197095D01*
X155122619Y-116244714D02*
X155075000Y-116197095D01*
X155027381Y-116101857D01*
X155027381Y-115863761D01*
X155075000Y-115768523D01*
X155122619Y-115720904D01*
X155217857Y-115673285D01*
X155313095Y-115673285D01*
X155455952Y-115720904D01*
X156027381Y-116292333D01*
X156027381Y-115673285D01*
X158440381Y-117197095D02*
X157440381Y-117197095D01*
X157440381Y-116959000D01*
X157488000Y-116816142D01*
X157583238Y-116720904D01*
X157678476Y-116673285D01*
X157868952Y-116625666D01*
X158011810Y-116625666D01*
X158202286Y-116673285D01*
X158297524Y-116720904D01*
X158392762Y-116816142D01*
X158440381Y-116959000D01*
X158440381Y-117197095D01*
X158440381Y-115673285D02*
X158440381Y-116244714D01*
X158440381Y-115959000D02*
X157440381Y-115959000D01*
X157583238Y-116054238D01*
X157678476Y-116149476D01*
X157726095Y-116244714D01*
X161234381Y-117197095D02*
X160234381Y-117197095D01*
X160234381Y-116959000D01*
X160282000Y-116816142D01*
X160377238Y-116720904D01*
X160472476Y-116673285D01*
X160662952Y-116625666D01*
X160805810Y-116625666D01*
X160996286Y-116673285D01*
X161091524Y-116720904D01*
X161186762Y-116816142D01*
X161234381Y-116959000D01*
X161234381Y-117197095D01*
X160234381Y-116006619D02*
X160234381Y-115911380D01*
X160282000Y-115816142D01*
X160329619Y-115768523D01*
X160424857Y-115720904D01*
X160615333Y-115673285D01*
X160853429Y-115673285D01*
X161043905Y-115720904D01*
X161139143Y-115768523D01*
X161186762Y-115816142D01*
X161234381Y-115911380D01*
X161234381Y-116006619D01*
X161186762Y-116101857D01*
X161139143Y-116149476D01*
X161043905Y-116197095D01*
X160853429Y-116244714D01*
X160615333Y-116244714D01*
X160424857Y-116197095D01*
X160329619Y-116149476D01*
X160282000Y-116101857D01*
X160234381Y-116006619D01*
X180252762Y-83713581D02*
X179919428Y-83237390D01*
X179681333Y-83713581D02*
X179681333Y-82713581D01*
X180062286Y-82713581D01*
X180157524Y-82761200D01*
X180205143Y-82808819D01*
X180252762Y-82904057D01*
X180252762Y-83046914D01*
X180205143Y-83142152D01*
X180157524Y-83189771D01*
X180062286Y-83237390D01*
X179681333Y-83237390D01*
X180538476Y-82713581D02*
X180871809Y-83713581D01*
X181205143Y-82713581D01*
X182062286Y-83713581D02*
X181490857Y-83713581D01*
X181776571Y-83713581D02*
X181776571Y-82713581D01*
X181681333Y-82856438D01*
X181586095Y-82951676D01*
X181490857Y-82999295D01*
X177107981Y-87847466D02*
X176631790Y-88180800D01*
X177107981Y-88418895D02*
X176107981Y-88418895D01*
X176107981Y-88037942D01*
X176155600Y-87942704D01*
X176203219Y-87895085D01*
X176298457Y-87847466D01*
X176441314Y-87847466D01*
X176536552Y-87895085D01*
X176584171Y-87942704D01*
X176631790Y-88037942D01*
X176631790Y-88418895D01*
X176107981Y-87514133D02*
X176107981Y-86895085D01*
X176488933Y-87228419D01*
X176488933Y-87085561D01*
X176536552Y-86990323D01*
X176584171Y-86942704D01*
X176679410Y-86895085D01*
X176917505Y-86895085D01*
X177012743Y-86942704D01*
X177060362Y-86990323D01*
X177107981Y-87085561D01*
X177107981Y-87371276D01*
X177060362Y-87466514D01*
X177012743Y-87514133D01*
X193706762Y-88046619D02*
X193611524Y-87999000D01*
X193516286Y-87903762D01*
X193373429Y-87760905D01*
X193278190Y-87713286D01*
X193182952Y-87713286D01*
X193230571Y-87951381D02*
X193135333Y-87903762D01*
X193040095Y-87808524D01*
X192992476Y-87618048D01*
X192992476Y-87284714D01*
X193040095Y-87094238D01*
X193135333Y-86999000D01*
X193230571Y-86951381D01*
X193421048Y-86951381D01*
X193516286Y-86999000D01*
X193611524Y-87094238D01*
X193659143Y-87284714D01*
X193659143Y-87618048D01*
X193611524Y-87808524D01*
X193516286Y-87903762D01*
X193421048Y-87951381D01*
X193230571Y-87951381D01*
X194611524Y-87951381D02*
X194040095Y-87951381D01*
X194325809Y-87951381D02*
X194325809Y-86951381D01*
X194230571Y-87094238D01*
X194135333Y-87189476D01*
X194040095Y-87237095D01*
X186280467Y-154334781D02*
X186280467Y-155049067D01*
X186232847Y-155191924D01*
X186137609Y-155287162D01*
X185994752Y-155334781D01*
X185899514Y-155334781D01*
X187280467Y-155334781D02*
X186709038Y-155334781D01*
X186994752Y-155334781D02*
X186994752Y-154334781D01*
X186899514Y-154477638D01*
X186804276Y-154572876D01*
X186709038Y-154620495D01*
M02*
