G04 #@! TF.FileFunction,Other,Fab,Top*
%FSLAX46Y46*%
G04 Gerber Fmt 4.6, Leading zero omitted, Abs format (unit mm)*
G04 Created by KiCad (PCBNEW 4.0.7-e2-6376~58~ubuntu16.04.1) date Fri Mar  9 08:47:09 2018*
%MOMM*%
%LPD*%
G01*
G04 APERTURE LIST*
%ADD10C,0.100000*%
%ADD11C,0.300000*%
%ADD12C,0.150000*%
G04 APERTURE END LIST*
D10*
D11*
X119436000Y-123839857D02*
X119936000Y-123839857D01*
X120150286Y-124625571D02*
X119436000Y-124625571D01*
X119436000Y-123125571D01*
X120150286Y-123125571D01*
X120578857Y-123625571D02*
X121150286Y-123625571D01*
X120793143Y-124625571D02*
X120793143Y-123339857D01*
X120864571Y-123197000D01*
X121007429Y-123125571D01*
X121150286Y-123125571D01*
X121650286Y-124625571D02*
X121650286Y-123625571D01*
X121650286Y-123125571D02*
X121578857Y-123197000D01*
X121650286Y-123268429D01*
X121721714Y-123197000D01*
X121650286Y-123125571D01*
X121650286Y-123268429D01*
X123007429Y-124554143D02*
X122864572Y-124625571D01*
X122578858Y-124625571D01*
X122436000Y-124554143D01*
X122364572Y-124482714D01*
X122293143Y-124339857D01*
X122293143Y-123911286D01*
X122364572Y-123768429D01*
X122436000Y-123697000D01*
X122578858Y-123625571D01*
X122864572Y-123625571D01*
X123007429Y-123697000D01*
X124221714Y-124554143D02*
X124078857Y-124625571D01*
X123793143Y-124625571D01*
X123650286Y-124554143D01*
X123578857Y-124411286D01*
X123578857Y-123839857D01*
X123650286Y-123697000D01*
X123793143Y-123625571D01*
X124078857Y-123625571D01*
X124221714Y-123697000D01*
X124293143Y-123839857D01*
X124293143Y-123982714D01*
X123578857Y-124125571D01*
X124936000Y-123625571D02*
X124936000Y-124625571D01*
X124936000Y-123768429D02*
X125007428Y-123697000D01*
X125150286Y-123625571D01*
X125364571Y-123625571D01*
X125507428Y-123697000D01*
X125578857Y-123839857D01*
X125578857Y-124625571D01*
X126078857Y-123625571D02*
X126650286Y-123625571D01*
X126293143Y-123125571D02*
X126293143Y-124411286D01*
X126364571Y-124554143D01*
X126507429Y-124625571D01*
X126650286Y-124625571D01*
X113936000Y-126175571D02*
X114221714Y-127175571D01*
X114507428Y-126461286D01*
X114793143Y-127175571D01*
X115078857Y-126175571D01*
X115507429Y-126175571D02*
X115793143Y-127175571D01*
X116078857Y-126461286D01*
X116364572Y-127175571D01*
X116650286Y-126175571D01*
X117078858Y-126175571D02*
X117364572Y-127175571D01*
X117650286Y-126461286D01*
X117936001Y-127175571D01*
X118221715Y-126175571D01*
X118793144Y-127032714D02*
X118864572Y-127104143D01*
X118793144Y-127175571D01*
X118721715Y-127104143D01*
X118793144Y-127032714D01*
X118793144Y-127175571D01*
X120078858Y-127104143D02*
X119936001Y-127175571D01*
X119650287Y-127175571D01*
X119507430Y-127104143D01*
X119436001Y-126961286D01*
X119436001Y-126389857D01*
X119507430Y-126247000D01*
X119650287Y-126175571D01*
X119936001Y-126175571D01*
X120078858Y-126247000D01*
X120150287Y-126389857D01*
X120150287Y-126532714D01*
X119436001Y-126675571D01*
X120578858Y-126175571D02*
X121150287Y-126175571D01*
X120793144Y-127175571D02*
X120793144Y-125889857D01*
X120864572Y-125747000D01*
X121007430Y-125675571D01*
X121150287Y-125675571D01*
X121650287Y-127175571D02*
X121650287Y-126175571D01*
X121650287Y-125675571D02*
X121578858Y-125747000D01*
X121650287Y-125818429D01*
X121721715Y-125747000D01*
X121650287Y-125675571D01*
X121650287Y-125818429D01*
X123007430Y-127104143D02*
X122864573Y-127175571D01*
X122578859Y-127175571D01*
X122436001Y-127104143D01*
X122364573Y-127032714D01*
X122293144Y-126889857D01*
X122293144Y-126461286D01*
X122364573Y-126318429D01*
X122436001Y-126247000D01*
X122578859Y-126175571D01*
X122864573Y-126175571D01*
X123007430Y-126247000D01*
X124221715Y-127104143D02*
X124078858Y-127175571D01*
X123793144Y-127175571D01*
X123650287Y-127104143D01*
X123578858Y-126961286D01*
X123578858Y-126389857D01*
X123650287Y-126247000D01*
X123793144Y-126175571D01*
X124078858Y-126175571D01*
X124221715Y-126247000D01*
X124293144Y-126389857D01*
X124293144Y-126532714D01*
X123578858Y-126675571D01*
X124936001Y-126175571D02*
X124936001Y-127175571D01*
X124936001Y-126318429D02*
X125007429Y-126247000D01*
X125150287Y-126175571D01*
X125364572Y-126175571D01*
X125507429Y-126247000D01*
X125578858Y-126389857D01*
X125578858Y-127175571D01*
X126078858Y-126175571D02*
X126650287Y-126175571D01*
X126293144Y-125675571D02*
X126293144Y-126961286D01*
X126364572Y-127104143D01*
X126507430Y-127175571D01*
X126650287Y-127175571D01*
X127150287Y-127032714D02*
X127221715Y-127104143D01*
X127150287Y-127175571D01*
X127078858Y-127104143D01*
X127150287Y-127032714D01*
X127150287Y-127175571D01*
X128507430Y-127104143D02*
X128364573Y-127175571D01*
X128078859Y-127175571D01*
X127936001Y-127104143D01*
X127864573Y-127032714D01*
X127793144Y-126889857D01*
X127793144Y-126461286D01*
X127864573Y-126318429D01*
X127936001Y-126247000D01*
X128078859Y-126175571D01*
X128364573Y-126175571D01*
X128507430Y-126247000D01*
X129364573Y-127175571D02*
X129221715Y-127104143D01*
X129150287Y-127032714D01*
X129078858Y-126889857D01*
X129078858Y-126461286D01*
X129150287Y-126318429D01*
X129221715Y-126247000D01*
X129364573Y-126175571D01*
X129578858Y-126175571D01*
X129721715Y-126247000D01*
X129793144Y-126318429D01*
X129864573Y-126461286D01*
X129864573Y-126889857D01*
X129793144Y-127032714D01*
X129721715Y-127104143D01*
X129578858Y-127175571D01*
X129364573Y-127175571D01*
X130507430Y-127175571D02*
X130507430Y-126175571D01*
X130507430Y-126318429D02*
X130578858Y-126247000D01*
X130721716Y-126175571D01*
X130936001Y-126175571D01*
X131078858Y-126247000D01*
X131150287Y-126389857D01*
X131150287Y-127175571D01*
X131150287Y-126389857D02*
X131221716Y-126247000D01*
X131364573Y-126175571D01*
X131578858Y-126175571D01*
X131721716Y-126247000D01*
X131793144Y-126389857D01*
X131793144Y-127175571D01*
D10*
X177422534Y-114746384D02*
G75*
G03X180361894Y-114746400I1469666J-2500016D01*
G01*
X181392200Y-117246400D02*
G75*
G03X181392200Y-117246400I-2500000J0D01*
G01*
X180361894Y-114746400D02*
X177422506Y-114746400D01*
X187582534Y-114746384D02*
G75*
G03X190521894Y-114746400I1469666J-2500016D01*
G01*
X191552200Y-117246400D02*
G75*
G03X191552200Y-117246400I-2500000J0D01*
G01*
X190521894Y-114746400D02*
X187582506Y-114746400D01*
X180116800Y-103123600D02*
X177616800Y-103123600D01*
X177616800Y-103123600D02*
X177616800Y-109423600D01*
X177616800Y-109423600D02*
X180116800Y-109423600D01*
X180116800Y-109423600D02*
X180116800Y-103123600D01*
X178866800Y-101193600D02*
X178866800Y-103123600D01*
X178866800Y-111353600D02*
X178866800Y-109423600D01*
X190276800Y-103123600D02*
X187776800Y-103123600D01*
X187776800Y-103123600D02*
X187776800Y-109423600D01*
X187776800Y-109423600D02*
X190276800Y-109423600D01*
X190276800Y-109423600D02*
X190276800Y-103123600D01*
X189026800Y-101193600D02*
X189026800Y-103123600D01*
X189026800Y-111353600D02*
X189026800Y-109423600D01*
X189816400Y-90471000D02*
G75*
G03X189816400Y-90471000I-5150000J0D01*
G01*
X186416400Y-90471000D02*
G75*
G03X186416400Y-90471000I-1750000J0D01*
G01*
X186166400Y-90471000D02*
G75*
G03X186166400Y-90471000I-1500000J0D01*
G01*
X116015747Y-61315600D02*
G75*
G03X116015747Y-61315600I-1360147J0D01*
G01*
X116015747Y-154584400D02*
G75*
G03X116015747Y-154584400I-1360147J0D01*
G01*
X196584547Y-154584400D02*
G75*
G03X196584547Y-154584400I-1360147J0D01*
G01*
X196584547Y-61315600D02*
G75*
G03X196584547Y-61315600I-1360147J0D01*
G01*
X175595600Y-84530800D02*
X173095600Y-84530800D01*
X173095600Y-84530800D02*
X173095600Y-90830800D01*
X173095600Y-90830800D02*
X175595600Y-90830800D01*
X175595600Y-90830800D02*
X175595600Y-84530800D01*
X174345600Y-82600800D02*
X174345600Y-84530800D01*
X174345600Y-92760800D02*
X174345600Y-90830800D01*
X192032000Y-92809000D02*
X195532000Y-92809000D01*
X195555625Y-92812625D02*
G75*
G03X193802000Y-88579000I-1753625J1753625D01*
G01*
X192048375Y-92812625D02*
G75*
G02X193802000Y-88579000I1753625J1753625D01*
G01*
X187248800Y-153822400D02*
X185343800Y-153822400D01*
X185343800Y-153822400D02*
X185343800Y-133502400D01*
X185343800Y-133502400D02*
X187883800Y-133502400D01*
X187883800Y-133502400D02*
X187883800Y-153187400D01*
X187883800Y-153187400D02*
X187248800Y-153822400D01*
D12*
X181497429Y-64429571D02*
X181640286Y-64477190D01*
X181687905Y-64524810D01*
X181735524Y-64620048D01*
X181735524Y-64762905D01*
X181687905Y-64858143D01*
X181640286Y-64905762D01*
X181545048Y-64953381D01*
X181164095Y-64953381D01*
X181164095Y-63953381D01*
X181497429Y-63953381D01*
X181592667Y-64001000D01*
X181640286Y-64048619D01*
X181687905Y-64143857D01*
X181687905Y-64239095D01*
X181640286Y-64334333D01*
X181592667Y-64381952D01*
X181497429Y-64429571D01*
X181164095Y-64429571D01*
X182592667Y-64286714D02*
X182592667Y-64953381D01*
X182164095Y-64286714D02*
X182164095Y-64810524D01*
X182211714Y-64905762D01*
X182306952Y-64953381D01*
X182449810Y-64953381D01*
X182545048Y-64905762D01*
X182592667Y-64858143D01*
X182973619Y-64286714D02*
X183497429Y-64286714D01*
X182973619Y-64953381D01*
X183497429Y-64953381D01*
X183783143Y-64286714D02*
X184306953Y-64286714D01*
X183783143Y-64953381D01*
X184306953Y-64953381D01*
X185068858Y-64905762D02*
X184973620Y-64953381D01*
X184783143Y-64953381D01*
X184687905Y-64905762D01*
X184640286Y-64810524D01*
X184640286Y-64429571D01*
X184687905Y-64334333D01*
X184783143Y-64286714D01*
X184973620Y-64286714D01*
X185068858Y-64334333D01*
X185116477Y-64429571D01*
X185116477Y-64524810D01*
X184640286Y-64620048D01*
X185545048Y-64953381D02*
X185545048Y-64286714D01*
X185545048Y-64477190D02*
X185592667Y-64381952D01*
X185640286Y-64334333D01*
X185735524Y-64286714D01*
X185830763Y-64286714D01*
X175077381Y-120327657D02*
X175077381Y-120803848D01*
X174077381Y-120803848D01*
X174553571Y-119994324D02*
X174553571Y-119660990D01*
X175077381Y-119518133D02*
X175077381Y-119994324D01*
X174077381Y-119994324D01*
X174077381Y-119518133D01*
X175077381Y-119089562D02*
X174077381Y-119089562D01*
X174077381Y-118851467D01*
X174125000Y-118708609D01*
X174220238Y-118613371D01*
X174315476Y-118565752D01*
X174505952Y-118518133D01*
X174648810Y-118518133D01*
X174839286Y-118565752D01*
X174934524Y-118613371D01*
X175029762Y-118708609D01*
X175077381Y-118851467D01*
X175077381Y-119089562D01*
X185288181Y-120556257D02*
X185288181Y-121032448D01*
X184288181Y-121032448D01*
X184764371Y-120222924D02*
X184764371Y-119889590D01*
X185288181Y-119746733D02*
X185288181Y-120222924D01*
X184288181Y-120222924D01*
X184288181Y-119746733D01*
X185288181Y-119318162D02*
X184288181Y-119318162D01*
X184288181Y-119080067D01*
X184335800Y-118937209D01*
X184431038Y-118841971D01*
X184526276Y-118794352D01*
X184716752Y-118746733D01*
X184859610Y-118746733D01*
X185050086Y-118794352D01*
X185145324Y-118841971D01*
X185240562Y-118937209D01*
X185288181Y-119080067D01*
X185288181Y-119318162D01*
X176104419Y-108083124D02*
X176056800Y-108035505D01*
X176009181Y-107940267D01*
X176009181Y-107702171D01*
X176056800Y-107606933D01*
X176104419Y-107559314D01*
X176199657Y-107511695D01*
X176294895Y-107511695D01*
X176437752Y-107559314D01*
X177009181Y-108130743D01*
X177009181Y-107511695D01*
X176009181Y-107178362D02*
X176009181Y-106511695D01*
X177009181Y-106940267D01*
X176009181Y-105940267D02*
X176009181Y-105845028D01*
X176056800Y-105749790D01*
X176104419Y-105702171D01*
X176199657Y-105654552D01*
X176390133Y-105606933D01*
X176628229Y-105606933D01*
X176818705Y-105654552D01*
X176913943Y-105702171D01*
X176961562Y-105749790D01*
X177009181Y-105845028D01*
X177009181Y-105940267D01*
X176961562Y-106035505D01*
X176913943Y-106083124D01*
X176818705Y-106130743D01*
X176628229Y-106178362D01*
X176390133Y-106178362D01*
X176199657Y-106130743D01*
X176104419Y-106083124D01*
X176056800Y-106035505D01*
X176009181Y-105940267D01*
X177009181Y-105225981D02*
X177009181Y-104987886D01*
X176818705Y-104987886D01*
X176771086Y-105083124D01*
X176675848Y-105178362D01*
X176532990Y-105225981D01*
X176294895Y-105225981D01*
X176152038Y-105178362D01*
X176056800Y-105083124D01*
X176009181Y-104940267D01*
X176009181Y-104749790D01*
X176056800Y-104606933D01*
X176152038Y-104511695D01*
X176294895Y-104464076D01*
X176532990Y-104464076D01*
X176675848Y-104511695D01*
X176771086Y-104606933D01*
X176818705Y-104702171D01*
X177009181Y-104702171D01*
X177009181Y-104464076D01*
X186264419Y-108083124D02*
X186216800Y-108035505D01*
X186169181Y-107940267D01*
X186169181Y-107702171D01*
X186216800Y-107606933D01*
X186264419Y-107559314D01*
X186359657Y-107511695D01*
X186454895Y-107511695D01*
X186597752Y-107559314D01*
X187169181Y-108130743D01*
X187169181Y-107511695D01*
X186169181Y-107178362D02*
X186169181Y-106511695D01*
X187169181Y-106940267D01*
X186169181Y-105940267D02*
X186169181Y-105845028D01*
X186216800Y-105749790D01*
X186264419Y-105702171D01*
X186359657Y-105654552D01*
X186550133Y-105606933D01*
X186788229Y-105606933D01*
X186978705Y-105654552D01*
X187073943Y-105702171D01*
X187121562Y-105749790D01*
X187169181Y-105845028D01*
X187169181Y-105940267D01*
X187121562Y-106035505D01*
X187073943Y-106083124D01*
X186978705Y-106130743D01*
X186788229Y-106178362D01*
X186550133Y-106178362D01*
X186359657Y-106130743D01*
X186264419Y-106083124D01*
X186216800Y-106035505D01*
X186169181Y-105940267D01*
X187169181Y-105225981D02*
X187169181Y-104987886D01*
X186978705Y-104987886D01*
X186931086Y-105083124D01*
X186835848Y-105178362D01*
X186692990Y-105225981D01*
X186454895Y-105225981D01*
X186312038Y-105178362D01*
X186216800Y-105083124D01*
X186169181Y-104940267D01*
X186169181Y-104749790D01*
X186216800Y-104606933D01*
X186312038Y-104511695D01*
X186454895Y-104464076D01*
X186692990Y-104464076D01*
X186835848Y-104511695D01*
X186931086Y-104606933D01*
X186978705Y-104702171D01*
X187169181Y-104702171D01*
X187169181Y-104464076D01*
X142692381Y-109814714D02*
X141692381Y-109814714D01*
X142692381Y-109243285D01*
X141692381Y-109243285D01*
X142692381Y-108624238D02*
X142644762Y-108719476D01*
X142597143Y-108767095D01*
X142501905Y-108814714D01*
X142216190Y-108814714D01*
X142120952Y-108767095D01*
X142073333Y-108719476D01*
X142025714Y-108624238D01*
X142025714Y-108481380D01*
X142073333Y-108386142D01*
X142120952Y-108338523D01*
X142216190Y-108290904D01*
X142501905Y-108290904D01*
X142597143Y-108338523D01*
X142644762Y-108386142D01*
X142692381Y-108481380D01*
X142692381Y-108624238D01*
X142692381Y-107433761D02*
X141692381Y-107433761D01*
X142644762Y-107433761D02*
X142692381Y-107528999D01*
X142692381Y-107719476D01*
X142644762Y-107814714D01*
X142597143Y-107862333D01*
X142501905Y-107909952D01*
X142216190Y-107909952D01*
X142120952Y-107862333D01*
X142073333Y-107814714D01*
X142025714Y-107719476D01*
X142025714Y-107528999D01*
X142073333Y-107433761D01*
X142644762Y-106576618D02*
X142692381Y-106671856D01*
X142692381Y-106862333D01*
X142644762Y-106957571D01*
X142549524Y-107005190D01*
X142168571Y-107005190D01*
X142073333Y-106957571D01*
X142025714Y-106862333D01*
X142025714Y-106671856D01*
X142073333Y-106576618D01*
X142168571Y-106528999D01*
X142263810Y-106528999D01*
X142359048Y-107005190D01*
X142692381Y-106100428D02*
X141692381Y-106100428D01*
X142406667Y-105767094D01*
X141692381Y-105433761D01*
X142692381Y-105433761D01*
X142597143Y-104386142D02*
X142644762Y-104433761D01*
X142692381Y-104576618D01*
X142692381Y-104671856D01*
X142644762Y-104814714D01*
X142549524Y-104909952D01*
X142454286Y-104957571D01*
X142263810Y-105005190D01*
X142120952Y-105005190D01*
X141930476Y-104957571D01*
X141835238Y-104909952D01*
X141740000Y-104814714D01*
X141692381Y-104671856D01*
X141692381Y-104576618D01*
X141740000Y-104433761D01*
X141787619Y-104386142D01*
X141692381Y-103957571D02*
X142501905Y-103957571D01*
X142597143Y-103909952D01*
X142644762Y-103862333D01*
X142692381Y-103767095D01*
X142692381Y-103576618D01*
X142644762Y-103481380D01*
X142597143Y-103433761D01*
X142501905Y-103386142D01*
X141692381Y-103386142D01*
X142787619Y-103148047D02*
X142787619Y-102386142D01*
X142692381Y-101624237D02*
X142692381Y-102195666D01*
X142692381Y-101909952D02*
X141692381Y-101909952D01*
X141835238Y-102005190D01*
X141930476Y-102100428D01*
X141978095Y-102195666D01*
X142597143Y-101195666D02*
X142644762Y-101148047D01*
X142692381Y-101195666D01*
X142644762Y-101243285D01*
X142597143Y-101195666D01*
X142692381Y-101195666D01*
X141692381Y-100529000D02*
X141692381Y-100433761D01*
X141740000Y-100338523D01*
X141787619Y-100290904D01*
X141882857Y-100243285D01*
X142073333Y-100195666D01*
X142311429Y-100195666D01*
X142501905Y-100243285D01*
X142597143Y-100290904D01*
X142644762Y-100338523D01*
X142692381Y-100433761D01*
X142692381Y-100529000D01*
X142644762Y-100624238D01*
X142597143Y-100671857D01*
X142501905Y-100719476D01*
X142311429Y-100767095D01*
X142073333Y-100767095D01*
X141882857Y-100719476D01*
X141787619Y-100671857D01*
X141740000Y-100624238D01*
X141692381Y-100529000D01*
X187079096Y-83586581D02*
X186507667Y-83586581D01*
X186793381Y-83586581D02*
X186793381Y-82586581D01*
X186698143Y-82729438D01*
X186602905Y-82824676D01*
X186507667Y-82872295D01*
X187698143Y-82586581D02*
X187793382Y-82586581D01*
X187888620Y-82634200D01*
X187936239Y-82681819D01*
X187983858Y-82777057D01*
X188031477Y-82967533D01*
X188031477Y-83205629D01*
X187983858Y-83396105D01*
X187936239Y-83491343D01*
X187888620Y-83538962D01*
X187793382Y-83586581D01*
X187698143Y-83586581D01*
X187602905Y-83538962D01*
X187555286Y-83491343D01*
X187507667Y-83396105D01*
X187460048Y-83205629D01*
X187460048Y-82967533D01*
X187507667Y-82777057D01*
X187555286Y-82681819D01*
X187602905Y-82634200D01*
X187698143Y-82586581D01*
X188460048Y-83586581D02*
X188460048Y-82586581D01*
X189031477Y-83586581D02*
X188602905Y-83015152D01*
X189031477Y-82586581D02*
X188460048Y-83158010D01*
X189412429Y-83586581D02*
X189650524Y-83586581D01*
X189650524Y-83396105D01*
X189555286Y-83348486D01*
X189460048Y-83253248D01*
X189412429Y-83110390D01*
X189412429Y-82872295D01*
X189460048Y-82729438D01*
X189555286Y-82634200D01*
X189698143Y-82586581D01*
X189888620Y-82586581D01*
X190031477Y-82634200D01*
X190126715Y-82729438D01*
X190174334Y-82872295D01*
X190174334Y-83110390D01*
X190126715Y-83253248D01*
X190031477Y-83348486D01*
X189936239Y-83396105D01*
X189936239Y-83586581D01*
X190174334Y-83586581D01*
X171583219Y-89490324D02*
X171535600Y-89442705D01*
X171487981Y-89347467D01*
X171487981Y-89109371D01*
X171535600Y-89014133D01*
X171583219Y-88966514D01*
X171678457Y-88918895D01*
X171773695Y-88918895D01*
X171916552Y-88966514D01*
X172487981Y-89537943D01*
X172487981Y-88918895D01*
X171487981Y-88585562D02*
X171487981Y-87918895D01*
X172487981Y-88347467D01*
X171487981Y-87347467D02*
X171487981Y-87252228D01*
X171535600Y-87156990D01*
X171583219Y-87109371D01*
X171678457Y-87061752D01*
X171868933Y-87014133D01*
X172107029Y-87014133D01*
X172297505Y-87061752D01*
X172392743Y-87109371D01*
X172440362Y-87156990D01*
X172487981Y-87252228D01*
X172487981Y-87347467D01*
X172440362Y-87442705D01*
X172392743Y-87490324D01*
X172297505Y-87537943D01*
X172107029Y-87585562D01*
X171868933Y-87585562D01*
X171678457Y-87537943D01*
X171583219Y-87490324D01*
X171535600Y-87442705D01*
X171487981Y-87347467D01*
X172487981Y-86633181D02*
X172487981Y-86395086D01*
X172297505Y-86395086D01*
X172249886Y-86490324D01*
X172154648Y-86585562D01*
X172011790Y-86633181D01*
X171773695Y-86633181D01*
X171630838Y-86585562D01*
X171535600Y-86490324D01*
X171487981Y-86347467D01*
X171487981Y-86156990D01*
X171535600Y-86014133D01*
X171630838Y-85918895D01*
X171773695Y-85871276D01*
X172011790Y-85871276D01*
X172154648Y-85918895D01*
X172249886Y-86014133D01*
X172297505Y-86109371D01*
X172487981Y-86109371D01*
X172487981Y-85871276D01*
X194365714Y-94035571D02*
X194699048Y-94035571D01*
X194841905Y-94559381D02*
X194365714Y-94559381D01*
X194365714Y-93559381D01*
X194841905Y-93559381D01*
X195603810Y-94035571D02*
X195746667Y-94083190D01*
X195794286Y-94130810D01*
X195841905Y-94226048D01*
X195841905Y-94368905D01*
X195794286Y-94464143D01*
X195746667Y-94511762D01*
X195651429Y-94559381D01*
X195270476Y-94559381D01*
X195270476Y-93559381D01*
X195603810Y-93559381D01*
X195699048Y-93607000D01*
X195746667Y-93654619D01*
X195794286Y-93749857D01*
X195794286Y-93845095D01*
X195746667Y-93940333D01*
X195699048Y-93987952D01*
X195603810Y-94035571D01*
X195270476Y-94035571D01*
X196841905Y-94464143D02*
X196794286Y-94511762D01*
X196651429Y-94559381D01*
X196556191Y-94559381D01*
X196413333Y-94511762D01*
X196318095Y-94416524D01*
X196270476Y-94321286D01*
X196222857Y-94130810D01*
X196222857Y-93987952D01*
X196270476Y-93797476D01*
X196318095Y-93702238D01*
X196413333Y-93607000D01*
X196556191Y-93559381D01*
X196651429Y-93559381D01*
X196794286Y-93607000D01*
X196841905Y-93654619D01*
X193706762Y-88046619D02*
X193611524Y-87999000D01*
X193516286Y-87903762D01*
X193373429Y-87760905D01*
X193278190Y-87713286D01*
X193182952Y-87713286D01*
X193230571Y-87951381D02*
X193135333Y-87903762D01*
X193040095Y-87808524D01*
X192992476Y-87618048D01*
X192992476Y-87284714D01*
X193040095Y-87094238D01*
X193135333Y-86999000D01*
X193230571Y-86951381D01*
X193421048Y-86951381D01*
X193516286Y-86999000D01*
X193611524Y-87094238D01*
X193659143Y-87284714D01*
X193659143Y-87618048D01*
X193611524Y-87808524D01*
X193516286Y-87903762D01*
X193421048Y-87951381D01*
X193230571Y-87951381D01*
X194611524Y-87951381D02*
X194040095Y-87951381D01*
X194325809Y-87951381D02*
X194325809Y-86951381D01*
X194230571Y-87094238D01*
X194135333Y-87189476D01*
X194040095Y-87237095D01*
X184075343Y-143641295D02*
X184122962Y-143688914D01*
X184170581Y-143831771D01*
X184170581Y-143927009D01*
X184122962Y-144069867D01*
X184027724Y-144165105D01*
X183932486Y-144212724D01*
X183742010Y-144260343D01*
X183599152Y-144260343D01*
X183408676Y-144212724D01*
X183313438Y-144165105D01*
X183218200Y-144069867D01*
X183170581Y-143927009D01*
X183170581Y-143831771D01*
X183218200Y-143688914D01*
X183265819Y-143641295D01*
X184170581Y-143069867D02*
X184122962Y-143165105D01*
X184075343Y-143212724D01*
X183980105Y-143260343D01*
X183694390Y-143260343D01*
X183599152Y-143212724D01*
X183551533Y-143165105D01*
X183503914Y-143069867D01*
X183503914Y-142927009D01*
X183551533Y-142831771D01*
X183599152Y-142784152D01*
X183694390Y-142736533D01*
X183980105Y-142736533D01*
X184075343Y-142784152D01*
X184122962Y-142831771D01*
X184170581Y-142927009D01*
X184170581Y-143069867D01*
X183503914Y-142307962D02*
X184170581Y-142307962D01*
X183599152Y-142307962D02*
X183551533Y-142260343D01*
X183503914Y-142165105D01*
X183503914Y-142022247D01*
X183551533Y-141927009D01*
X183646771Y-141879390D01*
X184170581Y-141879390D01*
X183503914Y-141403200D02*
X184170581Y-141403200D01*
X183599152Y-141403200D02*
X183551533Y-141355581D01*
X183503914Y-141260343D01*
X183503914Y-141117485D01*
X183551533Y-141022247D01*
X183646771Y-140974628D01*
X184170581Y-140974628D01*
X184265819Y-140736533D02*
X184265819Y-139974628D01*
X183170581Y-139546057D02*
X183170581Y-139450818D01*
X183218200Y-139355580D01*
X183265819Y-139307961D01*
X183361057Y-139260342D01*
X183551533Y-139212723D01*
X183789629Y-139212723D01*
X183980105Y-139260342D01*
X184075343Y-139307961D01*
X184122962Y-139355580D01*
X184170581Y-139450818D01*
X184170581Y-139546057D01*
X184122962Y-139641295D01*
X184075343Y-139688914D01*
X183980105Y-139736533D01*
X183789629Y-139784152D01*
X183551533Y-139784152D01*
X183361057Y-139736533D01*
X183265819Y-139688914D01*
X183218200Y-139641295D01*
X183170581Y-139546057D01*
X184170581Y-138260342D02*
X184170581Y-138831771D01*
X184170581Y-138546057D02*
X183170581Y-138546057D01*
X183313438Y-138641295D01*
X183408676Y-138736533D01*
X183456295Y-138831771D01*
X184170581Y-137927009D02*
X183503914Y-137403199D01*
X183503914Y-137927009D02*
X184170581Y-137403199D01*
X183170581Y-136831771D02*
X183170581Y-136736532D01*
X183218200Y-136641294D01*
X183265819Y-136593675D01*
X183361057Y-136546056D01*
X183551533Y-136498437D01*
X183789629Y-136498437D01*
X183980105Y-136546056D01*
X184075343Y-136593675D01*
X184122962Y-136641294D01*
X184170581Y-136736532D01*
X184170581Y-136831771D01*
X184122962Y-136927009D01*
X184075343Y-136974628D01*
X183980105Y-137022247D01*
X183789629Y-137069866D01*
X183551533Y-137069866D01*
X183361057Y-137022247D01*
X183265819Y-136974628D01*
X183218200Y-136927009D01*
X183170581Y-136831771D01*
X183599152Y-135927009D02*
X183551533Y-136022247D01*
X183503914Y-136069866D01*
X183408676Y-136117485D01*
X183361057Y-136117485D01*
X183265819Y-136069866D01*
X183218200Y-136022247D01*
X183170581Y-135927009D01*
X183170581Y-135736532D01*
X183218200Y-135641294D01*
X183265819Y-135593675D01*
X183361057Y-135546056D01*
X183408676Y-135546056D01*
X183503914Y-135593675D01*
X183551533Y-135641294D01*
X183599152Y-135736532D01*
X183599152Y-135927009D01*
X183646771Y-136022247D01*
X183694390Y-136069866D01*
X183789629Y-136117485D01*
X183980105Y-136117485D01*
X184075343Y-136069866D01*
X184122962Y-136022247D01*
X184170581Y-135927009D01*
X184170581Y-135736532D01*
X184122962Y-135641294D01*
X184075343Y-135593675D01*
X183980105Y-135546056D01*
X183789629Y-135546056D01*
X183694390Y-135593675D01*
X183646771Y-135641294D01*
X183599152Y-135736532D01*
X186066181Y-143995733D02*
X186780467Y-143995733D01*
X186923324Y-144043353D01*
X187018562Y-144138591D01*
X187066181Y-144281448D01*
X187066181Y-144376686D01*
X187066181Y-142995733D02*
X187066181Y-143567162D01*
X187066181Y-143281448D02*
X186066181Y-143281448D01*
X186209038Y-143376686D01*
X186304276Y-143471924D01*
X186351895Y-143567162D01*
X141557714Y-70842190D02*
X141557714Y-71318381D01*
X141224381Y-70318381D02*
X141557714Y-70842190D01*
X141891048Y-70318381D01*
X142129143Y-70318381D02*
X142367238Y-71318381D01*
X142557715Y-70604095D01*
X142748191Y-71318381D01*
X142986286Y-70318381D01*
X143938667Y-71318381D02*
X143605333Y-70842190D01*
X143367238Y-71318381D02*
X143367238Y-70318381D01*
X143748191Y-70318381D01*
X143843429Y-70366000D01*
X143891048Y-70413619D01*
X143938667Y-70508857D01*
X143938667Y-70651714D01*
X143891048Y-70746952D01*
X143843429Y-70794571D01*
X143748191Y-70842190D01*
X143367238Y-70842190D01*
X144510095Y-71318381D02*
X144414857Y-71270762D01*
X144367238Y-71223143D01*
X144319619Y-71127905D01*
X144319619Y-70842190D01*
X144367238Y-70746952D01*
X144414857Y-70699333D01*
X144510095Y-70651714D01*
X144652953Y-70651714D01*
X144748191Y-70699333D01*
X144795810Y-70746952D01*
X144843429Y-70842190D01*
X144843429Y-71127905D01*
X144795810Y-71223143D01*
X144748191Y-71270762D01*
X144652953Y-71318381D01*
X144510095Y-71318381D01*
X145272000Y-71318381D02*
X145272000Y-70318381D01*
X145272000Y-70699333D02*
X145367238Y-70651714D01*
X145557715Y-70651714D01*
X145652953Y-70699333D01*
X145700572Y-70746952D01*
X145748191Y-70842190D01*
X145748191Y-71127905D01*
X145700572Y-71223143D01*
X145652953Y-71270762D01*
X145557715Y-71318381D01*
X145367238Y-71318381D01*
X145272000Y-71270762D01*
X146319619Y-71318381D02*
X146224381Y-71270762D01*
X146176762Y-71223143D01*
X146129143Y-71127905D01*
X146129143Y-70842190D01*
X146176762Y-70746952D01*
X146224381Y-70699333D01*
X146319619Y-70651714D01*
X146462477Y-70651714D01*
X146557715Y-70699333D01*
X146605334Y-70746952D01*
X146652953Y-70842190D01*
X146652953Y-71127905D01*
X146605334Y-71223143D01*
X146557715Y-71270762D01*
X146462477Y-71318381D01*
X146319619Y-71318381D01*
X146938667Y-70651714D02*
X147319619Y-70651714D01*
X147081524Y-70318381D02*
X147081524Y-71175524D01*
X147129143Y-71270762D01*
X147224381Y-71318381D01*
X147319619Y-71318381D01*
M02*
